<svg width="352" height="390" viewBox="0 0 352 390" fill="none" xmlns="http://www.w3.org/2000/svg">
<rect width="352" height="390" rx="10" fill="#E4E5E9"/>
<path d="M92 208.16H94.96V191.96L92 191.44V190.08L98.16 188.88V192.48H98.32C98.48 192.08 98.72 191.667 99.04 191.24C99.3867 190.813 99.8 190.427 100.28 190.08C100.787 189.733 101.373 189.453 102.04 189.24C102.707 189 103.44 188.88 104.24 188.88C106.72 188.88 108.493 189.533 109.56 190.84C110.653 192.12 111.2 194.053 111.2 196.64V208.16H114.16V210H104.96V208.16H107.92V196.92C107.92 193.08 106.307 191.16 103.08 191.16C102.493 191.16 101.907 191.24 101.32 191.4C100.76 191.56 100.24 191.813 99.76 192.16C99.3067 192.507 98.9333 192.933 98.64 193.44C98.3733 193.947 98.24 194.547 98.24 195.24V208.16H101.2V210H92V208.16ZM126.827 208.52C127.814 208.52 128.667 208.36 129.387 208.04C130.134 207.693 130.734 207.227 131.187 206.64C131.667 206.027 132.014 205.32 132.227 204.52C132.467 203.693 132.587 202.8 132.587 201.84V197.52C132.587 196.56 132.467 195.68 132.227 194.88C132.014 194.053 131.667 193.347 131.187 192.76C130.734 192.147 130.134 191.68 129.387 191.36C128.667 191.013 127.814 190.84 126.827 190.84C125.814 190.84 124.947 191.013 124.227 191.36C123.507 191.68 122.907 192.147 122.427 192.76C121.974 193.347 121.627 194.053 121.387 194.88C121.174 195.68 121.067 196.56 121.067 197.52V201.84C121.067 202.8 121.174 203.693 121.387 204.52C121.627 205.32 121.974 206.027 122.427 206.64C122.907 207.227 123.507 207.693 124.227 208.04C124.947 208.36 125.814 208.52 126.827 208.52ZM126.827 210.48C125.414 210.48 124.12 210.227 122.947 209.72C121.774 209.213 120.774 208.493 119.947 207.56C119.12 206.6 118.48 205.467 118.027 204.16C117.574 202.827 117.347 201.333 117.347 199.68C117.347 198.053 117.574 196.573 118.027 195.24C118.48 193.907 119.12 192.773 119.947 191.84C120.774 190.88 121.774 190.147 122.947 189.64C124.12 189.133 125.414 188.88 126.827 188.88C128.24 188.88 129.534 189.133 130.707 189.64C131.88 190.147 132.88 190.88 133.707 191.84C134.534 192.773 135.174 193.907 135.627 195.24C136.08 196.573 136.307 198.053 136.307 199.68C136.307 201.333 136.08 202.827 135.627 204.16C135.174 205.467 134.534 206.6 133.707 207.56C132.88 208.493 131.88 209.213 130.707 209.72C129.534 210.227 128.24 210.48 126.827 210.48ZM154.022 184.6C153.329 184.6 152.795 184.4 152.422 184C152.075 183.573 151.902 183.067 151.902 182.48V182.28C151.902 181.693 152.075 181.2 152.422 180.8C152.795 180.373 153.329 180.16 154.022 180.16C154.715 180.16 155.249 180.373 155.622 180.8C155.995 181.2 156.182 181.693 156.182 182.28V182.48C156.182 183.067 155.995 183.573 155.622 184C155.249 184.4 154.715 184.6 154.022 184.6ZM149.422 208.16H152.382V191.96L149.422 191.44V190.08L155.662 188.88V208.16H158.622V210H149.422V208.16ZM162.039 208.16H164.999V191.96L162.039 191.44V190.08L168.199 188.88V192.48H168.359C168.519 192.053 168.759 191.627 169.079 191.2C169.399 190.773 169.799 190.387 170.279 190.04C170.786 189.693 171.359 189.413 171.999 189.2C172.639 188.987 173.359 188.88 174.159 188.88C175.919 188.88 177.319 189.213 178.359 189.88C179.399 190.547 180.119 191.573 180.519 192.96H180.639C180.852 192.48 181.132 192 181.479 191.52C181.826 191.04 182.252 190.6 182.759 190.2C183.266 189.8 183.852 189.48 184.519 189.24C185.212 189 186.012 188.88 186.919 188.88C189.399 188.88 191.159 189.533 192.199 190.84C193.266 192.147 193.799 194.093 193.799 196.68V208.16H196.759V210H187.559V208.16H190.519V196.92C190.519 193.08 188.932 191.16 185.759 191.16C185.172 191.16 184.586 191.253 183.999 191.44C183.439 191.6 182.932 191.853 182.479 192.2C182.052 192.52 181.706 192.947 181.439 193.48C181.172 193.987 181.039 194.587 181.039 195.28V208.16H183.999V210H174.799V208.16H177.759V196.92C177.759 193.08 176.186 191.16 173.039 191.16C172.426 191.16 171.839 191.253 171.279 191.44C170.719 191.6 170.212 191.853 169.759 192.2C169.306 192.52 168.946 192.947 168.679 193.48C168.412 193.987 168.279 194.587 168.279 195.28V208.16H171.239V210H162.039V208.16ZM206.284 210.48C204.364 210.48 202.857 209.987 201.764 209C200.697 207.987 200.164 206.613 200.164 204.88C200.164 203.893 200.324 203.027 200.644 202.28C200.964 201.507 201.484 200.867 202.204 200.36C202.951 199.853 203.911 199.467 205.084 199.2C206.257 198.933 207.684 198.8 209.364 198.8H212.324V195.76C212.324 194.133 211.924 192.893 211.124 192.04C210.351 191.16 209.177 190.72 207.604 190.72C206.911 190.72 206.271 190.787 205.684 190.92C205.097 191.027 204.617 191.187 204.244 191.4V191.48C204.537 191.64 204.817 191.88 205.084 192.2C205.377 192.52 205.524 192.973 205.524 193.56C205.524 194.253 205.324 194.8 204.924 195.2C204.524 195.573 203.991 195.76 203.324 195.76C202.684 195.76 202.151 195.573 201.724 195.2C201.324 194.8 201.124 194.213 201.124 193.44C201.124 192.853 201.297 192.293 201.644 191.76C201.991 191.2 202.484 190.707 203.124 190.28C203.764 189.853 204.551 189.52 205.484 189.28C206.444 189.013 207.524 188.88 208.724 188.88C210.884 188.88 212.564 189.44 213.764 190.56C214.991 191.68 215.604 193.253 215.604 195.28V208.28H218.604V209.68C218.311 209.893 217.911 210.08 217.404 210.24C216.924 210.4 216.377 210.48 215.764 210.48C214.724 210.48 213.924 210.187 213.364 209.6C212.804 209.013 212.524 208.227 212.524 207.24V206.96H212.324C212.137 207.413 211.884 207.853 211.564 208.28C211.271 208.707 210.884 209.08 210.404 209.4C209.924 209.72 209.337 209.973 208.644 210.16C207.977 210.373 207.191 210.48 206.284 210.48ZM207.684 208.28C208.964 208.28 210.057 207.96 210.964 207.32C211.871 206.653 212.324 205.64 212.324 204.28V200.4H209.724C208.577 200.4 207.617 200.493 206.844 200.68C206.071 200.84 205.457 201.093 205.004 201.44C204.551 201.76 204.217 202.16 204.004 202.64C203.817 203.12 203.724 203.68 203.724 204.32V205.16C203.724 206.173 204.071 206.947 204.764 207.48C205.457 208.013 206.431 208.28 207.684 208.28ZM230.285 218.48C228.685 218.48 227.325 218.36 226.205 218.12C225.085 217.88 224.178 217.547 223.485 217.12C222.791 216.693 222.285 216.173 221.965 215.56C221.671 214.947 221.525 214.267 221.525 213.52C221.525 212.987 221.645 212.493 221.885 212.04C222.125 211.587 222.445 211.187 222.845 210.84C223.245 210.493 223.698 210.2 224.205 209.96C224.711 209.693 225.231 209.493 225.765 209.36V209.2C224.085 208.613 223.245 207.48 223.245 205.8C223.245 204.733 223.578 203.893 224.245 203.28C224.938 202.667 225.738 202.24 226.645 202V201.8C225.391 201.267 224.391 200.48 223.645 199.44C222.925 198.4 222.565 197.147 222.565 195.68C222.565 194.64 222.751 193.707 223.125 192.88C223.525 192.027 224.071 191.307 224.765 190.72C225.485 190.133 226.325 189.68 227.285 189.36C228.245 189.04 229.298 188.88 230.445 188.88C231.698 188.88 232.765 189.053 233.645 189.4C234.551 189.72 235.311 190.12 235.925 190.6C235.951 189.053 236.245 188 236.805 187.44C237.391 186.88 238.071 186.6 238.845 186.6C239.431 186.6 239.911 186.773 240.285 187.12C240.685 187.467 240.885 187.933 240.885 188.52C240.885 189.08 240.698 189.547 240.325 189.92C239.978 190.267 239.485 190.44 238.845 190.44C238.098 190.44 237.525 190.173 237.125 189.64H237.005V191.64C237.298 192.04 237.605 192.56 237.925 193.2C238.245 193.84 238.405 194.667 238.405 195.68C238.405 196.72 238.205 197.667 237.805 198.52C237.405 199.373 236.845 200.093 236.125 200.68C235.431 201.267 234.591 201.72 233.605 202.04C232.645 202.36 231.591 202.52 230.445 202.52C229.698 202.52 228.991 202.44 228.325 202.28C227.631 202.413 227.005 202.707 226.445 203.16C225.885 203.587 225.605 204.107 225.605 204.72C225.605 205.387 225.858 205.853 226.365 206.12C226.871 206.387 227.725 206.52 228.925 206.52H233.645C235.991 206.52 237.725 207 238.845 207.96C239.991 208.893 240.565 210.24 240.565 212C240.565 213.973 239.698 215.547 237.965 216.72C236.231 217.893 233.671 218.48 230.285 218.48ZM230.485 200.8C231.951 200.8 233.045 200.413 233.765 199.64C234.511 198.867 234.885 197.813 234.885 196.48V194.92C234.885 193.587 234.511 192.533 233.765 191.76C233.045 190.987 231.951 190.6 230.485 190.6C229.018 190.6 227.911 190.987 227.165 191.76C226.445 192.533 226.085 193.587 226.085 194.92V196.48C226.085 197.813 226.445 198.867 227.165 199.64C227.911 200.413 229.018 200.8 230.485 200.8ZM224.445 213.32C224.445 214.387 224.898 215.187 225.805 215.72C226.738 216.253 227.978 216.52 229.525 216.52H231.405C233.405 216.52 234.965 216.187 236.085 215.52C237.231 214.853 237.805 213.96 237.805 212.84C237.805 211.827 237.458 211.053 236.765 210.52C236.071 210.013 234.858 209.76 233.125 209.76H226.885C226.031 210.133 225.405 210.627 225.005 211.24C224.631 211.853 224.445 212.547 224.445 213.32ZM252.488 210.48C251.021 210.48 249.701 210.227 248.528 209.72C247.381 209.187 246.408 208.453 245.608 207.52C244.808 206.587 244.195 205.453 243.768 204.12C243.341 202.787 243.128 201.307 243.128 199.68C243.128 198.08 243.355 196.627 243.808 195.32C244.288 193.987 244.928 192.84 245.728 191.88C246.555 190.92 247.528 190.187 248.648 189.68C249.768 189.147 250.995 188.88 252.328 188.88C253.688 188.88 254.901 189.12 255.968 189.6C257.035 190.08 257.928 190.76 258.648 191.64C259.395 192.493 259.968 193.52 260.368 194.72C260.768 195.92 260.968 197.227 260.968 198.64V199.56H246.768V200.6C246.768 202.867 247.328 204.653 248.448 205.96C249.595 207.267 251.115 207.92 253.008 207.92C254.661 207.92 255.968 207.587 256.928 206.92C257.915 206.227 258.688 205.333 259.248 204.24L260.568 205.08C260.301 205.773 259.928 206.453 259.448 207.12C258.995 207.76 258.435 208.333 257.768 208.84C257.101 209.32 256.328 209.707 255.448 210C254.568 210.32 253.581 210.48 252.488 210.48ZM246.768 197.72H257.528V197.32C257.528 196.387 257.421 195.52 257.208 194.72C257.021 193.92 256.715 193.227 256.288 192.64C255.861 192.053 255.315 191.6 254.648 191.28C254.008 190.933 253.235 190.76 252.328 190.76C251.421 190.76 250.621 190.92 249.928 191.24C249.235 191.56 248.648 192.013 248.168 192.6C247.715 193.187 247.368 193.88 247.128 194.68C246.888 195.453 246.768 196.307 246.768 197.24V197.72Z" fill="black"/>
</svg>
